<svg width="239" height="48" viewBox="0 0 239 48" fill="none" xmlns="http://www.w3.org/2000/svg">
<path d="M238 24C238 25.2947 237.351 26.6712 235.872 28.1231C234.39 29.5769 232.152 31.0272 229.18 32.4385C223.241 35.2588 214.582 37.8252 203.802 39.9901C182.259 44.3168 152.454 47 119.5 47C86.5465 47 56.7406 44.3168 35.1976 39.9901C24.4179 37.8252 15.7594 35.2588 9.81983 32.4385C6.84759 31.0272 4.60953 29.5769 3.12828 28.1231C1.64887 26.6712 1 25.2947 1 24C1 22.7053 1.64887 21.3288 3.12828 19.8769C4.60953 18.4231 6.84759 16.9728 9.81983 15.5615C15.7594 12.7412 24.4179 10.1748 35.1976 8.00986C56.7406 3.68325 86.5465 1 119.5 1C152.454 1 182.259 3.68325 203.802 8.00986C214.582 10.1748 223.241 12.7412 229.18 15.5615C232.152 16.9728 234.39 18.4231 235.872 19.8769C237.351 21.3288 238 22.7053 238 24Z" stroke="#F94018" stroke-width="2"/>
</svg>
