<svg width="171" height="48" viewBox="0 0 171 48" fill="none" xmlns="http://www.w3.org/2000/svg">
<path d="M170 24C170 26.7979 167.97 29.6933 163.728 32.5087C159.524 35.2985 153.375 37.8498 145.687 40.0078C130.325 44.3199 109.046 47 85.5 47C61.9544 47 40.6746 44.3199 25.3126 40.0078C17.6247 37.8498 11.4758 35.2985 7.27198 32.5087C3.02969 29.6933 1 26.7979 1 24C1 21.2021 3.02969 18.3067 7.27198 15.4913C11.4758 12.7015 17.6247 10.1502 25.3126 7.99223C40.6746 3.6801 61.9544 1 85.5 1C109.046 1 130.325 3.6801 145.687 7.99223C153.375 10.1502 159.524 12.7015 163.728 15.4913C167.97 18.3067 170 21.2021 170 24Z" stroke="#F94018" stroke-width="2"/>
</svg>
